<?xml version="1.0" encoding="UTF-8" standalone="no"?>
<svg
   width="120"
   height="80"
   viewBox="0 0 120 80"
   fill="none"
   version="1.1"
   id="svg46"
   xml:space="preserve"
   xmlns="http://www.w3.org/2000/svg"
   xmlns:svg="http://www.w3.org/2000/svg"><rect
     width="120"
     height="80"
     rx="4"
     fill="#ffffff"
     id="rect26"
     x="0"
     y="0" /><defs
     id="defs44" /><g
     fill-rule="evenodd"
     clip-rule="evenodd"
     id="g166"
     transform="matrix(0.65623655,0,0,0.65623655,-0.98700865,-14.155888)"><path
       fill="#ffffff"
       fill-opacity="0"
       d="M 0,0 H 192.756 V 192.756 H 0 Z"
       id="path154" /><path
       d="m 71.559293,99.174937 h 31.888997 c 8.35,0 11.086,3.239003 11.086,8.278003 0,5.542 -5.039,7.991 -10.223,8.351 5.326,0.432 10.365,1.08 10.365,7.631 0,4.391 -2.59,8.637 -11.66,8.637 H 71.559293 Z m 15.765,26.203003 h 8.349 c 3.096,0 4.031,-1.297 4.031,-3.24 0,-1.799 -0.936,-3.096 -4.031,-3.096 h -8.349 z m 0,-12.383 h 7.99 c 2.951,0 4.104,-1.15 4.104,-3.095 0,-2.087 -1.152,-3.239 -3.887,-3.239 h -8.207 z m -23.251,17.564 c -3.743,1.152 -8.638,1.801 -13.029,1.801 -15.621,0 -26.994,-4.393 -26.994,-17.205 0,-11.733 11.086,-16.772003 26.203,-16.772003 4.247,0 9.574,0.432 13.821,1.728003 v 11.445 c -3.096,-1.943 -6.19,-3.095 -10.726,-3.095 -5.687,0 -11.59,2.952 -11.59,6.983 0,4.102 5.903,6.98 11.59,6.98 4.391,0 7.63,-1.295 10.726,-3.094 v 11.229 z m 95.089997,0 c -3.742,1.152 -8.637,1.801 -13.029,1.801 -15.619,0 -27.064,-4.393 -27.064,-17.205 0,-11.733 11.084,-16.772003 26.273,-16.772003 4.176,0 9.574,0.432 13.82,1.728003 v 11.445 c -3.238,-1.943 -6.334,-3.095 -10.725,-3.095 -5.76,0 -11.59,2.952 -11.59,6.983 0,4.102 5.688,6.98 11.59,6.98 4.391,0 7.486,-1.295 10.725,-3.094 z"
       fill="#ffffff"
       id="path158"
       style="fill:#52a5df;fill-opacity:1" /><path
       d="m 93.514293,74.771937 c 12.597997,0 22.817997,-10.293 22.817997,-22.963 0,-12.525 -10.221,-22.819 -22.817997,-22.819 -12.669,0 -22.891,10.294 -22.891,22.819 0,12.67 10.222,22.963 22.891,22.963 z"
       fill="#52a5df"
       id="path160" /><path
       d="m 110.50329,70.380937 c -4.391,4.679 -12.237997,9.43 -22.027997,9.43 -7.63,0 -14.325,-2.951 -18.5,-6.19 -24.906,2.591 -43.694,6.335 -43.694,6.335 v 10.078 H 159.16329 v -20.805 c 0,0 -22.818,-0.144 -48.66,1.152 z"
       fill="#52a5df"
       id="path162" /></g></svg>
